<?xml version="1.0" standalone="no"?>
<!DOCTYPE svg PUBLIC "-//W3C//DTD SVG 20010904//EN"
 "http://www.w3.org/TR/2001/REC-SVG-20010904/DTD/svg10.dtd">
<svg version="1.0" xmlns="http://www.w3.org/2000/svg"
 width="4400.000000pt" height="3400.000000pt" viewBox="0 0 4400.000000 3400.000000"
 preserveAspectRatio="xMidYMid meet">
<metadata>
Created by potrace 1.16, written by Peter Selinger 2001-2019
</metadata>
<g transform="translate(0.000000,3400.000000) scale(0.100000,-0.100000)"
fill="#233663" stroke="none">
<path d="M28407 32179 c-10 -6 -81 -106 -158 -224 l-140 -213 -182 -4 c-203
-3 -230 -11 -274 -78 l-23 -33 0 -769 0 -769 -27 -24 -28 -23 -3 -740 -2 -741
95 -523 c94 -519 95 -523 125 -550 29 -26 36 -28 125 -28 l95 0 0 -64 0 -64
-65 -4 c-91 -6 -106 -23 -113 -121 -9 -152 12 -187 113 -187 l65 0 0 -40 0
-40 -59 0 c-49 0 -65 -4 -88 -24 -25 -21 -28 -31 -31 -100 -8 -152 13 -186
115 -186 l63 0 0 -39 0 -39 -65 -4 c-91 -6 -106 -23 -113 -121 -9 -152 12
-187 113 -187 l65 0 0 -145 0 -145 -9098 0 c-6499 0 -9123 -3 -9183 -11 -563
-73 -1006 -481 -1126 -1039 -17 -82 -18 -382 -18 -8160 0 -7757 1 -8078 18
-8160 62 -292 205 -538 422 -730 176 -156 368 -248 635 -307 69 -16 493 -17
5473 -20 2968 -2 5397 -5 5397 -7 0 -3 -178 -328 -396 -723 -218 -395 -412
-750 -431 -789 -81 -169 -80 -341 1 -509 87 -178 239 -291 436 -325 104 -17
4012 -9 4065 9 153 52 282 156 343 279 66 133 78 293 32 427 -11 33 -215 413
-453 845 l-433 785 5410 5 c5101 6 5416 7 5496 23 534 110 934 503 1047 1027
17 82 18 382 18 8175 l0 8090 -28 109 c-65 258 -194 479 -382 654 -171 160
-379 267 -635 328 -71 17 -219 19 -2605 24 l-2530 5 0 140 0 140 65 3 c100 5
110 19 110 149 0 58 -4 113 -10 123 -13 24 -62 40 -122 40 l-49 0 3 38 3 37
68 5 c98 7 107 21 107 155 0 136 -9 148 -109 153 l-72 4 3 37 3 36 67 3 c59 3
70 6 88 29 17 22 20 40 20 125 0 55 -4 108 -10 118 -13 24 -62 40 -122 40
l-49 0 3 63 3 62 97 5 c151 8 131 -39 243 563 l95 507 0 749 0 748 -25 27 -25
27 -2 777 -3 777 -23 33 c-43 60 -67 66 -272 70 l-185 4 -130 200 c-71 110
-143 210 -158 224 l-29 24 -321 0 c-204 0 -329 -4 -340 -11z m-387 -759 l0
-180 45 0 45 0 0 180 0 180 50 0 50 0 0 -180 0 -180 50 0 50 0 0 180 0 180 50
0 50 0 0 -180 0 -180 50 0 50 0 0 180 0 180 50 0 50 0 0 -180 0 -180 45 0 45
0 0 180 0 180 50 0 50 0 0 -180 0 -180 45 0 45 0 0 180 0 180 50 0 50 0 0
-180 0 -180 50 0 50 0 0 180 0 180 50 0 50 0 0 -180 0 -180 50 0 50 0 0 180 0
180 50 0 50 0 0 -180 0 -180 45 0 45 0 0 180 0 181 123 -3 122 -3 3 -749 c2
-593 0 -751 -10 -758 -20 -12 -1915 -10 -1939 2 -19 10 -19 29 -19 748 0 561
3 741 12 750 8 8 52 12 130 12 l118 0 0 -180z m-247 -6418 l518 -2 -4 -3277
c-4 -3510 -2 -3345 -52 -3733 -144 -1117 -594 -2173 -1305 -3065 -294 -367
-672 -740 -1044 -1030 -987 -769 -2134 -1211 -3411 -1317 -193 -16 -757 -16
-950 0 -987 82 -1875 358 -2710 842 -831 481 -1568 1181 -2100 1995 -570 872
-903 1861 -986 2925 -15 199 -15 690 1 890 117 1508 743 2866 1815 3935 985
983 2269 1612 3645 1785 91 11 199 26 240 32 41 6 181 14 310 17 223 6 4938 8
6033 3z m-9463 -33 c-30 -18 -131 -79 -225 -137 -1405 -875 -2473 -2208 -3004
-3747 -261 -755 -384 -1494 -383 -2310 0 -465 30 -810 109 -1245 463 -2575
2331 -4702 4868 -5545 1488 -494 3162 -494 4650 0 1467 488 2744 1420 3636
2655 771 1068 1223 2299 1323 3605 24 314 26 489 26 3713 l0 3042 2218 -2
2217 -3 77 -22 c376 -107 642 -367 755 -738 l28 -90 0 -6740 0 -6740 -22 -82
c-56 -200 -138 -340 -287 -488 -175 -173 -370 -267 -611 -295 -125 -14 -22994
-14 -23120 0 -467 53 -849 423 -915 885 -8 59 -10 1838 -8 6765 l3 6685 27 93
c116 391 411 670 798 752 81 18 254 19 3990 19 l3905 1 -55 -31z"/>
<path d="M21636 24130 c-60 -5 -110 -11 -111 -12 -1 -2 -36 -187 -78 -412 -42
-225 -79 -411 -81 -414 -3 -2 -67 -15 -143 -28 -175 -31 -428 -94 -607 -151
-115 -37 -141 -42 -151 -31 -8 7 -125 155 -261 328 -136 173 -252 314 -258
312 -22 -6 -223 -96 -311 -140 -200 -99 -515 -287 -515 -307 0 -6 52 -184 115
-394 63 -211 116 -389 117 -396 2 -7 -42 -48 -97 -91 -155 -120 -298 -246
-448 -398 -97 -97 -143 -137 -155 -133 -9 3 -182 79 -383 170 l-367 164 -74
-96 c-154 -197 -275 -375 -397 -580 -33 -56 -61 -108 -61 -115 0 -7 18 -30 41
-51 22 -22 153 -156 290 -297 l250 -256 -46 -99 c-88 -186 -177 -421 -240
-633 -20 -69 -40 -128 -43 -132 -4 -4 -191 -19 -417 -34 -225 -15 -411 -28
-413 -29 -1 -1 -13 -60 -27 -131 -47 -254 -77 -519 -79 -707 l-1 -118 390
-126 c215 -70 391 -127 393 -129 2 -1 7 -73 12 -161 13 -231 33 -390 77 -626
14 -76 24 -139 22 -141 -2 -1 -159 -99 -349 -216 -190 -117 -348 -216 -352
-220 -13 -10 94 -344 182 -565 30 -76 139 -326 146 -334 1 -1 182 29 402 68
219 39 405 71 413 71 8 0 36 -39 63 -88 99 -176 257 -408 393 -578 40 -50 73
-94 73 -97 0 -3 -94 -166 -210 -363 -115 -196 -210 -360 -210 -364 0 -3 71
-76 158 -161 163 -161 303 -285 458 -406 l90 -71 332 259 332 260 92 -59 c206
-130 385 -227 593 -318 113 -49 120 -54 123 -83 2 -17 -6 -203 -17 -414 -12
-210 -21 -387 -21 -394 0 -34 696 -216 903 -236 15 -2 52 71 191 378 l173 380
109 -5 c60 -3 219 -5 354 -5 135 0 294 2 354 5 l109 5 172 -380 c141 -310 177
-380 192 -378 205 20 903 202 903 236 0 7 -9 184 -21 394 -11 211 -19 397 -17
414 3 29 10 34 123 83 208 91 387 188 593 318 l92 59 332 -260 332 -259 90 71
c155 121 295 245 459 406 86 85 157 158 157 161 0 4 -94 168 -210 364 -115
197 -210 360 -210 363 0 3 33 47 73 97 136 170 294 402 393 578 27 49 55 88
63 88 8 0 194 -32 413 -71 220 -39 401 -69 402 -68 7 8 116 258 146 334 89
225 195 555 181 565 -4 3 -163 101 -352 219 -189 118 -346 216 -348 217 -2 2
8 65 22 141 44 236 64 395 77 626 5 88 10 160 12 161 2 2 179 59 393 128 l390
126 3 49 c5 63 -14 298 -39 493 -17 137 -64 410 -71 415 -2 1 -187 14 -413 29
-225 15 -413 30 -417 34 -3 4 -23 63 -43 132 -63 212 -152 447 -240 633 l-46
99 250 256 c137 141 268 275 290 297 23 21 41 44 41 51 0 7 -28 59 -61 115
-122 205 -243 383 -397 580 l-74 96 -365 -163 c-200 -90 -373 -166 -384 -169
-15 -5 -49 24 -156 132 -150 151 -293 277 -448 397 -55 43 -99 84 -97 91 1 7
54 185 117 396 63 210 115 388 115 394 0 20 -315 208 -515 307 -88 44 -289
134 -311 140 -6 2 -122 -139 -258 -312 -136 -173 -253 -321 -261 -328 -10 -11
-36 -6 -151 31 -179 57 -432 120 -607 151 -76 13 -140 26 -143 28 -2 3 -39
190 -82 416 l-77 410 -40 6 c-75 10 -690 15 -799 6z m540 -4315 c553 -97 941
-610 884 -1170 -45 -443 -346 -808 -767 -930 -424 -124 -879 31 -1145 388
-314 423 -277 1017 86 1395 249 259 598 376 942 317z"/>
</g>
</svg>
